<svg width="503" height="630" viewBox="0 0 503 630" fill="none" xmlns="http://www.w3.org/2000/svg">
<path d="M41.9167 125.75C54.4917 136.229 67.0667 146.708 94.3125 146.708C146.708 146.708 146.708 104.792 199.104 104.792C253.596 104.792 249.404 146.708 303.896 146.708C356.292 146.708 356.292 104.792 408.688 104.792C435.933 104.792 448.508 115.271 461.083 125.75" stroke="black" stroke-width="2" stroke-linecap="round" stroke-linejoin="round"/>
<path d="M41.9167 251.5C54.4917 261.979 67.0667 272.458 94.3125 272.458C146.708 272.458 146.708 230.542 199.104 230.542C253.596 230.542 249.404 272.458 303.896 272.458C356.292 272.458 356.292 230.542 408.688 230.542C435.933 230.542 448.508 241.021 461.083 251.5" stroke="black" stroke-width="2" stroke-linecap="round" stroke-linejoin="round"/>
<path d="M41.9167 377.25C54.4917 387.729 67.0667 398.208 94.3125 398.208C146.708 398.208 146.708 356.292 199.104 356.292C253.596 356.292 249.404 398.208 303.896 398.208C356.292 398.208 356.292 356.292 408.688 356.292C435.933 356.292 448.508 366.771 461.083 377.25" stroke="black" stroke-width="2" stroke-linecap="round" stroke-linejoin="round"/>
<g filter="url(#filter0_d_18_788)">
<path d="M150.005 607V537.909H177.668C182.751 537.909 186.991 538.663 190.387 540.169C193.783 541.676 196.335 543.768 198.045 546.444C199.754 549.098 200.609 552.157 200.609 555.62C200.609 558.319 200.069 560.692 198.989 562.739C197.91 564.763 196.425 566.427 194.536 567.732C192.67 569.013 190.533 569.924 188.126 570.464V571.139C190.758 571.251 193.221 571.993 195.515 573.365C197.831 574.737 199.709 576.66 201.148 579.134C202.588 581.586 203.308 584.509 203.308 587.906C203.308 591.571 202.397 594.844 200.575 597.723C198.776 600.579 196.111 602.839 192.58 604.504C189.049 606.168 184.697 607 179.524 607H150.005ZM164.613 595.058H176.521C180.592 595.058 183.561 594.282 185.428 592.73C187.294 591.155 188.228 589.064 188.228 586.455C188.228 584.543 187.767 582.856 186.844 581.395C185.922 579.933 184.607 578.786 182.897 577.953C181.211 577.121 179.198 576.705 176.859 576.705H164.613V595.058ZM164.613 566.821H175.442C177.443 566.821 179.22 566.472 180.772 565.775C182.346 565.055 183.583 564.043 184.483 562.739C185.405 561.434 185.866 559.871 185.866 558.049C185.866 555.553 184.978 553.54 183.201 552.011C181.447 550.481 178.95 549.717 175.712 549.717H164.613V566.821ZM212.543 607V555.182H226.476V564.223H227.015C227.96 561.007 229.546 558.578 231.772 556.936C233.999 555.272 236.563 554.44 239.464 554.44C240.184 554.44 240.959 554.485 241.792 554.575C242.624 554.665 243.355 554.788 243.984 554.946V567.698C243.31 567.495 242.376 567.315 241.184 567.158C239.992 567.001 238.902 566.922 237.912 566.922C235.798 566.922 233.909 567.383 232.244 568.305C230.603 569.205 229.298 570.464 228.331 572.083C227.386 573.703 226.914 575.569 226.914 577.684V607H212.543ZM251.415 607V555.182H265.786V607H251.415ZM258.634 548.502C256.498 548.502 254.665 547.794 253.135 546.377C251.628 544.937 250.875 543.217 250.875 541.215C250.875 539.236 251.628 537.538 253.135 536.121C254.665 534.682 256.498 533.962 258.634 533.962C260.771 533.962 262.593 534.682 264.099 536.121C265.629 537.538 266.393 539.236 266.393 541.215C266.393 543.217 265.629 544.937 264.099 546.377C262.593 547.794 260.771 548.502 258.634 548.502ZM277.299 607V555.182H290.995V564.324H291.603C292.682 561.288 294.481 558.893 297 557.138C299.519 555.384 302.533 554.507 306.041 554.507C309.595 554.507 312.62 555.395 315.116 557.172C317.613 558.926 319.277 561.31 320.109 564.324H320.649C321.706 561.355 323.618 558.983 326.384 557.206C329.173 555.407 332.468 554.507 336.269 554.507C341.104 554.507 345.029 556.048 348.043 559.129C351.079 562.188 352.597 566.528 352.597 572.151V607H338.259V574.985C338.259 572.106 337.494 569.947 335.965 568.507C334.436 567.068 332.524 566.348 330.23 566.348C327.621 566.348 325.586 567.181 324.124 568.845C322.662 570.487 321.931 572.657 321.931 575.356V607H307.998V574.681C307.998 572.14 307.267 570.116 305.805 568.609C304.366 567.102 302.465 566.348 300.104 566.348C298.507 566.348 297.068 566.753 295.786 567.563C294.526 568.35 293.525 569.463 292.783 570.903C292.041 572.32 291.67 573.984 291.67 575.896V607H277.299Z" fill="#CB9EFF"/>
</g>
<defs>
<filter id="filter0_d_18_788" x="148.005" y="533.962" width="210.592" height="81.038" filterUnits="userSpaceOnUse" color-interpolation-filters="sRGB">
<feFlood flood-opacity="0" result="BackgroundImageFix"/>
<feColorMatrix in="SourceAlpha" type="matrix" values="0 0 0 0 0 0 0 0 0 0 0 0 0 0 0 0 0 0 127 0" result="hardAlpha"/>
<feOffset dx="2" dy="4"/>
<feGaussianBlur stdDeviation="2"/>
<feComposite in2="hardAlpha" operator="out"/>
<feColorMatrix type="matrix" values="0 0 0 0 0 0 0 0 0 0 0 0 0 0 0 0 0 0 0.1 0"/>
<feBlend mode="normal" in2="BackgroundImageFix" result="effect1_dropShadow_18_788"/>
<feBlend mode="normal" in="SourceGraphic" in2="effect1_dropShadow_18_788" result="shape"/>
</filter>
</defs>
</svg>
