<svg width="211" height="82" viewBox="0 0 211 82" fill="none" xmlns="http://www.w3.org/2000/svg">
<g filter="url(#filter0_d_18_787)">
<path d="M2.00497 74V4.90909H29.6683C34.7512 4.90909 38.9906 5.66252 42.3867 7.16939C45.7828 8.67625 48.3355 10.7679 50.0447 13.4442C51.754 16.0981 52.6087 19.1568 52.6087 22.6204C52.6087 25.3192 52.0689 27.692 50.9893 29.7386C49.9098 31.7628 48.4254 33.4271 46.5362 34.7315C44.6695 36.0135 42.5329 36.9244 40.1264 37.4641V38.1388C42.7578 38.2513 45.2205 38.9935 47.5146 40.3654C49.8311 41.7373 51.709 43.6603 53.1484 46.1342C54.5878 48.5857 55.3075 51.5095 55.3075 54.9055C55.3075 58.5715 54.3967 61.8439 52.5749 64.7227C50.7757 67.579 48.1106 69.8393 44.5795 71.5036C41.0485 73.1679 36.6966 74 31.5238 74H2.00497ZM16.6126 62.0575H28.5213C32.5921 62.0575 35.5608 61.2816 37.4276 59.7298C39.2943 58.1554 40.2276 56.0638 40.2276 53.4549C40.2276 51.5432 39.7666 49.8564 38.8445 48.3945C37.9224 46.9326 36.6067 45.7856 34.8974 44.9535C33.2106 44.1213 31.1977 43.7053 28.8587 43.7053H16.6126V62.0575ZM16.6126 33.8207H27.4418C29.4434 33.8207 31.2202 33.4721 32.772 32.7749C34.3464 32.0552 35.5833 31.0431 36.483 29.7386C37.4051 28.4342 37.8661 26.8711 37.8661 25.0494C37.8661 22.5529 36.9777 20.54 35.201 19.0107C33.4467 17.4813 30.9503 16.7166 27.7117 16.7166H16.6126V33.8207ZM64.5427 74V22.1818H78.4756V31.223H79.0154C79.96 28.0069 81.5455 25.5779 83.7721 23.9361C85.9987 22.2718 88.5626 21.4396 91.4639 21.4396C92.1836 21.4396 92.9595 21.4846 93.7916 21.5746C94.6238 21.6645 95.3547 21.7882 95.9845 21.9457V34.6978C95.3098 34.4954 94.3764 34.3155 93.1844 34.158C91.9924 34.0006 90.9016 33.9219 89.912 33.9219C87.7979 33.9219 85.9087 34.3829 84.2444 35.305C82.6026 36.2047 81.2981 37.4641 80.3311 39.0835C79.3865 40.7028 78.9142 42.5695 78.9142 44.6836V74H64.5427ZM103.415 74V22.1818H117.786V74H103.415ZM110.634 15.5021C108.498 15.5021 106.665 14.7937 105.135 13.3768C103.628 11.9374 102.875 10.2169 102.875 8.2152C102.875 6.23603 103.628 4.538 105.135 3.12109C106.665 1.6817 108.498 0.961999 110.634 0.961999C112.771 0.961999 114.593 1.6817 116.099 3.12109C117.629 4.538 118.393 6.23603 118.393 8.2152C118.393 10.2169 117.629 11.9374 116.099 13.3768C114.593 14.7937 112.771 15.5021 110.634 15.5021ZM129.299 74V22.1818H142.995V31.3242H143.603C144.682 28.288 146.481 25.8928 149 24.1385C151.519 22.3842 154.533 21.5071 158.041 21.5071C161.595 21.5071 164.62 22.3955 167.116 24.1722C169.613 25.9265 171.277 28.3105 172.109 31.3242H172.649C173.706 28.3555 175.618 25.9827 178.384 24.206C181.173 22.4067 184.468 21.5071 188.269 21.5071C193.104 21.5071 197.029 23.0477 200.043 26.1289C203.079 29.1876 204.597 33.5283 204.597 39.1509V74H190.259V41.9847C190.259 39.1059 189.494 36.9469 187.965 35.5075C186.436 34.0681 184.524 33.3484 182.23 33.3484C179.621 33.3484 177.586 34.1805 176.124 35.8448C174.662 37.4866 173.931 39.657 173.931 42.3558V74H159.998V41.6811C159.998 39.1397 159.267 37.1155 157.805 35.6087C156.366 34.1018 154.465 33.3484 152.104 33.3484C150.507 33.3484 149.068 33.7532 147.786 34.5629C146.526 35.35 145.525 36.4633 144.783 37.9027C144.041 39.3196 143.67 40.9839 143.67 42.8956V74H129.299Z" fill="#CB9EFF"/>
</g>
<defs>
<filter id="filter0_d_18_787" x="0.00497437" y="0.962036" width="210.592" height="81.038" filterUnits="userSpaceOnUse" color-interpolation-filters="sRGB">
<feFlood flood-opacity="0" result="BackgroundImageFix"/>
<feColorMatrix in="SourceAlpha" type="matrix" values="0 0 0 0 0 0 0 0 0 0 0 0 0 0 0 0 0 0 127 0" result="hardAlpha"/>
<feOffset dx="2" dy="4"/>
<feGaussianBlur stdDeviation="2"/>
<feComposite in2="hardAlpha" operator="out"/>
<feColorMatrix type="matrix" values="0 0 0 0 0 0 0 0 0 0 0 0 0 0 0 0 0 0 0.1 0"/>
<feBlend mode="normal" in2="BackgroundImageFix" result="effect1_dropShadow_18_787"/>
<feBlend mode="normal" in="SourceGraphic" in2="effect1_dropShadow_18_787" result="shape"/>
</filter>
</defs>
</svg>
